<?xml version="1.0" encoding="UTF-8"?>
<svg id="Layer_3" data-name="Layer 3" xmlns="http://www.w3.org/2000/svg" version="1.1" viewBox="0 0 149.6 329">
  <defs>
    <style>
      .cls-1 {
        fill: #fff;
        stroke-width: 0px;
      }
    </style>
  </defs>
  <path class="cls-1" d="M56.6,251.2c1.2,3.9,1.9,4.4,7.2,4.4h26.5c4.4,0,5.4-.5,6.7-4.2l6.1-18.4c2.6-7.9,3.9-12.6,3.9-14.5s-.9-3.2-5.1-3.5l-5.8-.5c-1.2-.9-1.2-3.7.3-4.4,4.6.4,10,.4,18.2.5,5.8,0,12.1-.4,16.8-.5,1.1.7,1.4,3.5.4,4.4l-5.8.5c-4.2.4-8.1,2.3-10.5,8.6-3.2,8.1-8.1,19.4-15.4,39.1l-17.9,47.3c-2.5,6.3-3.5,9.6-3,12.4-4.2,1.2-7.2,4.4-9.1,6.7-1.1,0-2.3-.4-2.6-1.6-2.3-7.7-5.1-15.8-7.7-23.5l-24-70.4c-5.1-15.1-7.4-17.7-14.9-18.6l-4.7-.5c-1.2-.9-.9-3.7,0-4.4,7.2.4,13.3.5,21.2.5s15.1-.4,20.2-.5c1.4.7,1.6,3.5.4,4.4l-5.1.5c-3.7.4-6.1,1.4-6.1,3.2s.9,5.1,2.3,9.3l7.7,23.8h0ZM91.3,266.8c1.4-4,1.2-4.2-3.7-4.2h-21.6c-5.1,0-5.4.7-3.9,5.4l9.5,28.6c1.4,4.2,3,8.9,4,11h.4c.5-.9,2.3-5.1,4.2-10.3l11-30.5h0Z"/>
  <g>
    <path class="cls-1" d="M48.6,7l7,.5c3.8.3,6.5.7,8.4,1.6.5.2,1.2.7,2.1,1.2,1.3.8,2.3,1.6,2.9,2.1.3.2.5.4.5.4,0,0,0,0,0,0,.2.2,4.3,1.6,13.4,4.8,0-.6-.1-1.5,0-2.5.1-1.2.3-3,1.4-4.2.2-.3.8-1,4.2-1.8,2.1-.4,4.3-.8,6.7-1.2,1.7-.2,3.3-.4,4.8-.5l7.8-.5c1.7-.9,1.3-3.9,0-4.4-9.9.4-20,.5-30.3.5-2.9,0-5.7,0-8.5,0-.8,0-1.5,0-2.3,0-.3,0-.7,0-1.1,0s-.2,0-.2,0c-.4,0-.8,0-1.2,0s-.5,0-.8,0c-.2,0-.4,0-.7,0s-.6,0-.8,0c0,0-.1,0-.2,0-.5,0-.9,0-1.4-.1-1,.7-2.3,1.1-3.8,1.1s-1.7-.1-2.5-.4c-.8.3-1.6.5-2.6.5s-2.3-.3-3.2-.7c-.6,1.1-.6,3,.4,3.5h0Z"/>
    <path class="cls-1" d="M86,113.3l7.4,2.9"/>
    <path class="cls-1" d="M83,106.1c-3.9,5-4.2,10.2-2.2,11.9,2.6,2.2,9.6-1,9.5-2.9,0-1.4-4.3-1.3-6.4-4.6-1.2-1.9-1.2-4-.9-5.8-2.5,2.6-5.4,6.5-6.9,11.9-.3,1-.5,1.9-.6,2.8h41c10-.6,17.2-.7,18.5,4.9.7.5,3.5.4,4.1,0,1.5-7,4.8-18.2,8.3-26.1-.9-1.4-3.9-2.3-5.7-1.2-2.4,4.4-4.6,8.2-9.8,12.1-5.5,4-17.4,4.4-26.8,4.5h-7.9c-.2,0-1.2,0-2.7,0-1.3,0-1.7,0-2.5,0-2.2,0-3.3,0-3.7-.1-1.6-.3-3.3-1.4-4.3-2.9-1.1-1.7-1.1-3.6-1.1-4.2h0Z"/>
    <path class="cls-1" d="M94.6,113.4c-1.2,0-2.4,0-3.6,0,.6,0,1.3,0,2.1,0h12-6.8c-1.2,0-2.5,0-3.7,0Z"/>
  </g>
  <g>
    <path class="cls-1" d="M11.6,124.2c.7.4,3.5.5,4.1,0,1.3-5.6,8.5-5.4,18.5-4.9,15,0,29.9,0,44.9,0,1-1.6,1.6-3,2-4.4,3.3-10.9-4.8-21.4-6.4-23.4l-7,11c0,.3.1,6-3.7,8.9-2.2,1.7-4.7,2-4.7,2-.7,0-1.4,0-1.8,0h-12c-9.4-.1-21.4-.5-26.8-4.5-5.2-3.9-7.4-7.7-9.8-12.1-1.7-1.1-4.8-.2-5.7,1.2,3.5,7.9,6.8,19.1,8.3,26.1Z"/>
    <path class="cls-1" d="M42.8,7c5.4.4,10.8.7,16.2,1.1.9,0,3.4.1,5.5,1.9,2.1,1.8,2.8,4.2,3.1,5.5.2.8.3,1.4.3,1.9.3,1,.5,2,.8,3l1.1,2.2c3.1-2.3,4.5-6,3.6-9.1-.8-2.6-2.8-4-3.5-4.5,0-.4-.1-.7-.2-1.1-.2-1.7-.3-3.2-.3-4.7h0c-1.6,0-6.2,0-11.6,0-6.4,0-11.9-.3-15-.4-1.3.5-1.7,3.5,0,4.4h0Z"/>
  </g>
  <rect class="cls-1" x="67.9" y="7.3" width="15.1" height="107.5"/>
  <path class="cls-1" d="M120.4,166.7c0,30.2-19.2,53.2-45.5,53.2s-44.3-25.2-44.3-51.7,19.7-52.6,44.3-52.6,45.5,24,45.5,51.1ZM46.9,164.1c-1.1,24.4,14.3,53,30.3,52.9,14.7,0,28.7-24.4,29.3-45.4.7-24.9-17.2-52.4-33.2-51.4-14.4.9-25.5,24.9-26.4,43.9Z"/>
</svg>