<?xml version="1.0" encoding="UTF-8"?>
<svg id="Layer_3" data-name="Layer 3" xmlns="http://www.w3.org/2000/svg" viewBox="0 0 149.561 329.006">
  <defs>
    <style>
      .cls-1 {
        fill: #231f20;
        stroke-width: 0px;
      }
    </style>
  </defs>
  <path class="cls-1" d="M56.563,251.227c1.227,3.854,1.928,4.38,7.186,4.38h26.464c4.382,0,5.433-.526,6.659-4.204l6.134-18.394c2.629-7.883,3.855-12.613,3.855-14.54,0-2.102-.876-3.154-5.083-3.504l-5.783-.526c-1.227-.875-1.227-3.678.35-4.379,4.556.35,9.99.35,18.226.525,5.784,0,12.093-.351,16.824-.525,1.052.701,1.402,3.504.35,4.379l-5.783.526c-4.206.35-8.062,2.277-10.515,8.584-3.155,8.058-8.062,19.445-15.422,39.065l-17.876,47.298c-2.453,6.306-3.505,9.635-2.979,12.438-4.206,1.227-7.186,4.38-9.114,6.657-1.051,0-2.278-.35-2.629-1.577-2.278-7.708-5.083-15.766-7.711-23.474l-24.01-70.422c-5.082-15.065-7.361-17.693-14.896-18.569l-4.732-.526c-1.227-.875-.876-3.678,0-4.379,7.186.35,13.319.525,21.206.525,8.412,0,15.072-.351,20.153-.525,1.402.701,1.577,3.504.351,4.379l-5.082.526c-3.681.35-6.134,1.401-6.134,3.153,0,1.927.877,5.08,2.279,9.285l7.71,23.824ZM91.264,266.818c1.402-4.029,1.227-4.204-3.68-4.204h-21.557c-5.083,0-5.433.701-3.856,5.43l9.464,28.554c1.402,4.204,2.979,8.934,4.031,11.037h.351c.526-.876,2.278-5.08,4.206-10.336l11.041-30.481Z"/>
  <g>
    <path class="cls-1" d="M48.621,6.955l6.978.526c3.799.263,6.49.688,8.425,1.648.465.249,1.192.652,2.052,1.193,1.307.822,2.316,1.582,2.916,2.056.255.201.452.361.536.43.024.02.041.033.041.034.184.151,4.315,1.62,13.428,4.752-.061-.591-.107-1.451,0-2.477.126-1.211.309-2.968,1.358-4.206.226-.267.793-1.035,4.246-1.768,2.075-.441,4.303-.837,6.675-1.153,1.664-.222,3.268-.388,4.804-.509l7.85-.526c1.744-.875,1.309-3.854,0-4.378-9.877.363-19.983.546-30.309.525-2.858-.006-5.698-.028-8.521-.064-.769-.012-1.538-.024-2.308-.037-.326.055-.691.078-1.089.078-.085,0-.164-.01-.247-.012-.384.057-.78.097-1.202.097-.273,0-.537-.015-.794-.039-.224.019-.447.039-.684.039-.286,0-.562-.015-.83-.041-.075.002-.145.012-.221.012-.483,0-.935-.047-1.368-.12-1.033.652-2.299,1.058-3.833,1.058-.912,0-1.733-.14-2.468-.388-.775.285-1.643.456-2.623.456-1.232,0-2.298-.255-3.207-.689-.58,1.147-.567,2.987.397,3.503Z"/>
    <path class="cls-1" d="M86.003,113.33c2.474.973,4.948,1.946,7.422,2.919"/>
    <path class="cls-1" d="M82.998,106.053c-3.873,4.994-4.192,10.163-2.183,11.886,2.62,2.246,9.596-1.023,9.517-2.876-.061-1.436-4.322-1.257-6.422-4.603-1.171-1.866-1.18-4.049-.912-5.819-2.461,2.587-5.395,6.509-6.925,11.853-.274.958-.482,1.888-.638,2.782h40.998c10.031-.555,17.227-.731,18.534,4.875.654.525,3.489.351,4.143,0,1.527-7.007,4.798-18.219,8.286-26.103-.872-1.401-3.925-2.277-5.67-1.226-2.398,4.38-4.578,8.234-9.812,12.088-5.451,4.029-17.444,4.38-26.821,4.526h-7.864c-.22,0-1.247-.031-2.664-.057-1.312-.024-1.673-.024-2.463-.039-2.196-.043-3.294-.048-3.727-.123-1.636-.285-3.306-1.353-4.326-2.915-1.143-1.749-1.104-3.556-1.052-4.249Z"/>
    <path class="cls-1" d="M94.566,113.379c-1.198,0-2.397-.008-3.595-.015.622.031,1.31.053,2.131.072h11.992s-6.806-.072-6.806-.072c-1.241.008-2.481.015-3.722.015Z"/>
  </g>
  <g>
    <path class="cls-1" d="M11.629,124.151c.654.351,3.489.525,4.143,0,1.308-5.606,8.504-5.43,18.534-4.875,14.963-.024,29.926-.047,44.889-.071.969-1.552,1.599-3.045,2.012-4.398,3.325-10.899-4.784-21.434-6.381-23.435-2.318,3.68-4.636,7.36-6.954,11.04.01.321.111,5.98-3.687,8.943-2.17,1.693-4.74,2.026-4.74,2.026-.734.095-1.359.085-1.808.055h-11.992c-9.377-.146-21.369-.497-26.821-4.526-5.233-3.854-7.413-7.709-9.811-12.088-1.744-1.051-4.798-.175-5.67,1.226,3.489,7.884,6.759,19.095,8.286,26.103Z"/>
    <path class="cls-1" d="M42.81,6.955c5.387.36,10.774.72,16.161,1.08.914-.003,3.376.115,5.496,1.862,2.146,1.768,2.774,4.242,3.084,5.464.193.759.278,1.408.32,1.862.27.987.54,1.974.81,2.961l1.13,2.19c3.077-2.291,4.484-5.95,3.574-9.128-.751-2.626-2.829-4.036-3.521-4.464-.06-.35-.114-.708-.163-1.073-.224-1.671-.296-3.245-.269-4.697h-.07c-1.592,0-6.166-.005-11.554-.081-6.401-.091-11.948-.254-14.999-.352-1.309.525-1.744,3.503,0,4.378Z"/>
  </g>
  <rect class="cls-1" x="67.872" y="7.282" width="15.126" height="107.524"/>
  <path class="cls-1" d="M120.405,166.677c0,30.156-19.157,53.226-45.465,53.226-29.501,0-44.316-25.18-44.316-51.718,0-30.459,19.668-52.623,44.316-52.623,28.352,0,45.465,23.974,45.465,51.115ZM46.861,164.139c-1.127,24.445,14.256,53.001,30.265,52.919,14.747-.076,28.719-24.447,29.31-45.386.702-24.863-17.25-52.394-33.156-51.436-14.385.866-25.545,24.938-26.419,43.903Z"/>
</svg>